<svg width="55" height="55" viewBox="0 0 55 55" fill="none" xmlns="http://www.w3.org/2000/svg">
<path d="M31.2934 2.93019C31.4692 3.58539 31.8087 4.18415 32.2795 4.66921C32.7503 5.15427 33.3366 5.5094 33.9823 5.70066C34.628 5.89191 35.3116 5.91288 35.9677 5.76158C36.6238 5.61027 37.2304 5.29175 37.7295 4.83645C40.7071 2.12407 45.3317 5.11853 44.1194 8.97771C43.9153 9.62494 43.8794 10.3142 44.0151 10.9794C44.1507 11.6447 44.4534 12.2636 44.8942 12.7771C45.335 13.2906 45.899 13.6813 46.5324 13.912C47.1658 14.1426 47.8473 14.2054 48.5116 14.0943C52.4725 13.4336 54.7509 18.4754 51.6667 21.0619C51.1489 21.4954 50.7499 22.0556 50.508 22.6889C50.2662 23.3223 50.1894 24.0077 50.2851 24.6795C50.3809 25.3513 50.6459 25.9871 51.0548 26.5262C51.4638 27.0652 52.003 27.4894 52.6209 27.7582C56.3074 29.3618 55.5254 34.8484 51.5452 35.3399C50.8771 35.4221 50.2411 35.6758 49.698 36.0767C49.1549 36.4776 48.7229 37.0123 48.4433 37.6298C48.1636 38.2472 48.0457 38.9266 48.1008 39.6032C48.1559 40.2797 48.3822 40.9306 48.7579 41.4937C50.9998 44.8571 47.4004 49.0428 43.7848 47.283C43.1787 46.9883 42.5078 46.8552 41.8361 46.8965C41.1645 46.9378 40.5145 47.1522 39.9484 47.5191C39.3823 47.886 38.919 48.3931 38.6026 48.9921C38.2863 49.5911 38.1275 50.2619 38.1415 50.9404C38.2265 54.9884 32.9533 56.5496 30.8545 53.0984C30.5027 52.5199 30.0097 52.042 29.4226 51.7105C28.8354 51.379 28.1738 51.2049 27.5009 51.2049C26.828 51.2049 26.1664 51.379 25.5792 51.7105C24.9921 52.042 24.4991 52.5199 24.1473 53.0984C22.0485 56.5496 16.7742 54.9884 16.8592 50.9404C16.8734 50.262 16.7148 49.5911 16.3986 48.9921C16.0824 48.3931 15.6191 47.8859 15.0531 47.5189C14.487 47.152 13.8371 46.9377 13.1655 46.8964C12.4939 46.8551 11.823 46.9882 11.217 47.283C7.60141 49.0428 4.00201 44.8528 6.24276 41.4937C6.61853 40.9307 6.84481 40.2798 6.89996 39.6034C6.9551 38.927 6.83728 38.2476 6.55776 37.6302C6.27823 37.0128 5.84635 36.478 5.3034 36.077C4.76045 35.6761 4.12459 35.4223 3.45661 35.3399C-0.523609 34.8484 -1.30997 29.3618 2.38088 27.7582C2.99887 27.4895 3.53818 27.0654 3.94724 26.5264C4.35629 25.9874 4.62142 25.3516 4.71726 24.6798C4.8131 24.008 4.73644 23.3226 4.49464 22.6892C4.25283 22.0557 3.85394 21.4955 3.33613 21.0619C0.246617 18.4754 2.5304 13.4336 6.49018 14.0943C7.15417 14.205 7.83522 14.1421 8.46822 13.9116C9.10123 13.6811 9.66504 13.2907 10.1058 12.7778C10.5465 12.2648 10.8494 11.6464 10.9856 10.9817C11.1217 10.3169 11.0866 9.62809 10.8835 8.98097C9.67113 5.12179 14.2957 2.12406 17.2723 4.8397C17.7717 5.29261 18.3778 5.60903 19.0328 5.75878C19.6879 5.90854 20.37 5.88665 21.0143 5.69521C21.6585 5.50378 22.2435 5.14917 22.7134 4.66516C23.1833 4.18115 23.5225 3.58386 23.6987 2.93019C24.7475 -0.976728 30.2446 -0.976728 31.2934 2.93019Z" fill="white" fill-opacity="0.9"/>
<path d="M21.0835 19.3488L30.6193 28.8983L21.0835 38.4478L23.649 41.017L35.7502 28.8983L23.649 16.7797L21.0835 19.3488Z" fill="#63B2F5"/>
</svg>
